<svg width="206" height="177" viewBox="0 0 206 177" fill="none" xmlns="http://www.w3.org/2000/svg">
<circle cx="4.00755" cy="4.00755" r="3.50755" fill="white" stroke="#3A3A3C"/>
<circle cx="4.00755" cy="19.3699" r="3.50755" fill="white" stroke="#3A3A3C"/>
<circle cx="4.00755" cy="34.732" r="3.50755" fill="white" stroke="#3A3A3C"/>
<circle cx="4.00755" cy="50.0943" r="3.50755" fill="white" stroke="#3A3A3C"/>
<circle cx="4.00755" cy="65.4566" r="3.50755" fill="white" stroke="#3A3A3C"/>
<circle cx="4.00755" cy="80.8188" r="3.50755" fill="white" stroke="#3A3A3C"/>
<circle cx="4.00755" cy="96.1811" r="3.50755" fill="white" stroke="#3A3A3C"/>
<circle cx="4.00755" cy="111.543" r="3.50755" fill="white" stroke="#3A3A3C"/>
<circle cx="4.00755" cy="126.906" r="3.50755" fill="white" stroke="#3A3A3C"/>
<circle cx="4.00755" cy="142.268" r="3.50755" fill="white" stroke="#3A3A3C"/>
<circle cx="4.00755" cy="157.63" r="3.50755" fill="white" stroke="#3A3A3C"/>
<circle cx="4.00755" cy="172.992" r="3.50755" fill="white" stroke="#3A3A3C"/>
<circle cx="16.6981" cy="4.00755" r="3.50755" fill="white" stroke="#3A3A3C"/>
<circle cx="16.6981" cy="19.3699" r="3.50755" fill="white" stroke="#3A3A3C"/>
<circle cx="16.6981" cy="34.732" r="3.50755" fill="white" stroke="#3A3A3C"/>
<circle cx="16.6981" cy="50.0943" r="3.50755" fill="white" stroke="#3A3A3C"/>
<circle cx="16.6981" cy="65.4566" r="3.50755" fill="white" stroke="#3A3A3C"/>
<circle cx="16.6981" cy="80.8188" r="3.50755" fill="white" stroke="#3A3A3C"/>
<circle cx="16.6981" cy="96.1811" r="3.50755" fill="white" stroke="#3A3A3C"/>
<circle cx="16.6981" cy="111.543" r="3.50755" fill="white" stroke="#3A3A3C"/>
<circle cx="16.6981" cy="126.906" r="3.50755" fill="white" stroke="#3A3A3C"/>
<circle cx="16.6981" cy="142.268" r="3.50755" fill="white" stroke="#3A3A3C"/>
<circle cx="16.6981" cy="157.63" r="3.50755" fill="white" stroke="#3A3A3C"/>
<circle cx="16.6981" cy="172.992" r="3.50755" fill="white" stroke="#3A3A3C"/>
<circle cx="28.0528" cy="4.00755" r="3.50755" fill="white" stroke="#3A3A3C"/>
<circle cx="28.0528" cy="19.3699" r="3.50755" fill="white" stroke="#3A3A3C"/>
<circle cx="28.0528" cy="34.732" r="3.50755" fill="white" stroke="#3A3A3C"/>
<circle cx="28.0528" cy="50.0943" r="3.50755" fill="white" stroke="#3A3A3C"/>
<circle cx="28.0528" cy="65.4566" r="3.50755" fill="white" stroke="#3A3A3C"/>
<circle cx="28.0528" cy="80.8188" r="3.50755" fill="white" stroke="#3A3A3C"/>
<circle cx="28.0528" cy="96.1811" r="3.50755" fill="white" stroke="#3A3A3C"/>
<circle cx="28.0528" cy="111.543" r="3.50755" fill="white" stroke="#3A3A3C"/>
<circle cx="28.0528" cy="126.906" r="3.50755" fill="white" stroke="#3A3A3C"/>
<circle cx="28.0528" cy="142.268" r="3.50755" fill="white" stroke="#3A3A3C"/>
<circle cx="28.0528" cy="157.63" r="3.50755" fill="white" stroke="#3A3A3C"/>
<circle cx="28.0528" cy="172.992" r="3.50755" fill="white" stroke="#3A3A3C"/>
<circle cx="41.4113" cy="4.00755" r="3.50755" fill="white" stroke="#3A3A3C"/>
<circle cx="41.4113" cy="19.3699" r="3.50755" fill="white" stroke="#3A3A3C"/>
<circle cx="41.4113" cy="34.732" r="3.50755" fill="white" stroke="#3A3A3C"/>
<circle cx="41.4113" cy="50.0943" r="3.50755" fill="white" stroke="#3A3A3C"/>
<circle cx="41.4113" cy="65.4566" r="3.50755" fill="white" stroke="#3A3A3C"/>
<circle cx="41.4113" cy="80.8188" r="3.50755" fill="white" stroke="#3A3A3C"/>
<circle cx="41.4113" cy="96.1811" r="3.50755" fill="white" stroke="#3A3A3C"/>
<circle cx="41.4113" cy="111.543" r="3.50755" fill="white" stroke="#3A3A3C"/>
<circle cx="41.4113" cy="126.906" r="3.50755" fill="white" stroke="#3A3A3C"/>
<circle cx="41.4113" cy="142.268" r="3.50755" fill="white" stroke="#3A3A3C"/>
<circle cx="41.4113" cy="157.63" r="3.50755" fill="white" stroke="#3A3A3C"/>
<circle cx="41.4113" cy="172.992" r="3.50755" fill="white" stroke="#3A3A3C"/>
<circle cx="54.7698" cy="4.00755" r="3.50755" fill="white" stroke="#3A3A3C"/>
<circle cx="54.7698" cy="19.3699" r="3.50755" fill="white" stroke="#3A3A3C"/>
<circle cx="54.7698" cy="34.732" r="3.50755" fill="white" stroke="#3A3A3C"/>
<circle cx="54.7698" cy="50.0943" r="3.50755" fill="white" stroke="#3A3A3C"/>
<circle cx="54.7698" cy="65.4566" r="3.50755" fill="white" stroke="#3A3A3C"/>
<circle cx="54.7698" cy="80.8188" r="3.50755" fill="white" stroke="#3A3A3C"/>
<circle cx="54.7698" cy="96.1811" r="3.50755" fill="white" stroke="#3A3A3C"/>
<circle cx="54.7698" cy="111.543" r="3.50755" fill="white" stroke="#3A3A3C"/>
<circle cx="54.7698" cy="126.906" r="3.50755" fill="white" stroke="#3A3A3C"/>
<circle cx="54.7698" cy="142.268" r="3.50755" fill="white" stroke="#3A3A3C"/>
<circle cx="54.7698" cy="157.63" r="3.50755" fill="white" stroke="#3A3A3C"/>
<circle cx="54.7698" cy="172.992" r="3.50755" fill="white" stroke="#3A3A3C"/>
<circle cx="68.1283" cy="4.00755" r="3.50755" fill="white" stroke="#3A3A3C"/>
<circle cx="68.1283" cy="19.3699" r="3.50755" fill="white" stroke="#3A3A3C"/>
<circle cx="68.1283" cy="34.732" r="3.50755" fill="white" stroke="#3A3A3C"/>
<circle cx="68.1283" cy="50.0943" r="3.50755" fill="white" stroke="#3A3A3C"/>
<circle cx="68.1283" cy="65.4566" r="3.50755" fill="white" stroke="#3A3A3C"/>
<circle cx="68.1283" cy="80.8188" r="3.50755" fill="white" stroke="#3A3A3C"/>
<circle cx="68.1283" cy="96.1811" r="3.50755" fill="white" stroke="#3A3A3C"/>
<circle cx="68.1283" cy="111.543" r="3.50755" fill="white" stroke="#3A3A3C"/>
<circle cx="68.1283" cy="126.906" r="3.50755" fill="white" stroke="#3A3A3C"/>
<circle cx="68.1283" cy="142.268" r="3.50755" fill="white" stroke="#3A3A3C"/>
<circle cx="68.1283" cy="157.63" r="3.50755" fill="white" stroke="#3A3A3C"/>
<circle cx="68.1283" cy="172.992" r="3.50755" fill="white" stroke="#3A3A3C"/>
<circle cx="81.4868" cy="4.00755" r="3.50755" fill="white" stroke="#3A3A3C"/>
<circle cx="81.4868" cy="19.3699" r="3.50755" fill="white" stroke="#3A3A3C"/>
<circle cx="81.4868" cy="34.732" r="3.50755" fill="white" stroke="#3A3A3C"/>
<circle cx="81.4868" cy="50.0943" r="3.50755" fill="white" stroke="#3A3A3C"/>
<circle cx="81.4868" cy="65.4566" r="3.50755" fill="white" stroke="#3A3A3C"/>
<circle cx="81.4868" cy="80.8188" r="3.50755" fill="white" stroke="#3A3A3C"/>
<circle cx="81.4868" cy="96.1811" r="3.50755" fill="white" stroke="#3A3A3C"/>
<circle cx="81.4868" cy="111.543" r="3.50755" fill="white" stroke="#3A3A3C"/>
<circle cx="81.4868" cy="126.906" r="3.50755" fill="white" stroke="#3A3A3C"/>
<circle cx="81.4868" cy="142.268" r="3.50755" fill="white" stroke="#3A3A3C"/>
<circle cx="81.4868" cy="157.63" r="3.50755" fill="white" stroke="#3A3A3C"/>
<circle cx="81.4868" cy="172.992" r="3.50755" fill="white" stroke="#3A3A3C"/>
<circle cx="94.8453" cy="4.00755" r="3.50755" fill="white" stroke="#3A3A3C"/>
<circle cx="94.8453" cy="19.3699" r="3.50755" fill="white" stroke="#3A3A3C"/>
<circle cx="94.8453" cy="34.732" r="3.50755" fill="white" stroke="#3A3A3C"/>
<circle cx="94.8453" cy="50.0943" r="3.50755" fill="white" stroke="#3A3A3C"/>
<circle cx="94.8453" cy="65.4566" r="3.50755" fill="white" stroke="#3A3A3C"/>
<circle cx="94.8453" cy="80.8188" r="3.50755" fill="white" stroke="#3A3A3C"/>
<circle cx="94.8453" cy="96.1811" r="3.50755" fill="white" stroke="#3A3A3C"/>
<circle cx="94.8453" cy="111.543" r="3.50755" fill="white" stroke="#3A3A3C"/>
<circle cx="94.8453" cy="126.906" r="3.50755" fill="white" stroke="#3A3A3C"/>
<circle cx="94.8453" cy="142.268" r="3.50755" fill="white" stroke="#3A3A3C"/>
<circle cx="94.8453" cy="157.63" r="3.50755" fill="white" stroke="#3A3A3C"/>
<circle cx="94.8453" cy="172.992" r="3.50755" fill="white" stroke="#3A3A3C"/>
<circle cx="108.204" cy="4.00755" r="3.50755" fill="white" stroke="#3A3A3C"/>
<circle cx="108.204" cy="19.3699" r="3.50755" fill="white" stroke="#3A3A3C"/>
<circle cx="108.204" cy="34.732" r="3.50755" fill="white" stroke="#3A3A3C"/>
<circle cx="108.204" cy="50.0943" r="3.50755" fill="white" stroke="#3A3A3C"/>
<circle cx="108.204" cy="65.4566" r="3.50755" fill="white" stroke="#3A3A3C"/>
<circle cx="108.204" cy="80.8188" r="3.50755" fill="white" stroke="#3A3A3C"/>
<circle cx="108.204" cy="96.1811" r="3.50755" fill="white" stroke="#3A3A3C"/>
<circle cx="108.204" cy="111.543" r="3.50755" fill="white" stroke="#3A3A3C"/>
<circle cx="108.204" cy="126.906" r="3.50755" fill="white" stroke="#3A3A3C"/>
<circle cx="108.204" cy="142.268" r="3.50755" fill="white" stroke="#3A3A3C"/>
<circle cx="108.204" cy="157.63" r="3.50755" fill="white" stroke="#3A3A3C"/>
<circle cx="108.204" cy="172.992" r="3.50755" fill="white" stroke="#3A3A3C"/>
<circle cx="121.562" cy="4.00755" r="3.50755" fill="white" stroke="#3A3A3C"/>
<circle cx="121.562" cy="19.3699" r="3.50755" fill="white" stroke="#3A3A3C"/>
<circle cx="121.562" cy="34.732" r="3.50755" fill="white" stroke="#3A3A3C"/>
<circle cx="121.562" cy="50.0943" r="3.50755" fill="white" stroke="#3A3A3C"/>
<circle cx="121.562" cy="65.4566" r="3.50755" fill="white" stroke="#3A3A3C"/>
<circle cx="121.562" cy="80.8188" r="3.50755" fill="white" stroke="#3A3A3C"/>
<circle cx="121.562" cy="96.1811" r="3.50755" fill="white" stroke="#3A3A3C"/>
<circle cx="121.562" cy="111.543" r="3.50755" fill="white" stroke="#3A3A3C"/>
<circle cx="121.562" cy="126.906" r="3.50755" fill="white" stroke="#3A3A3C"/>
<circle cx="121.562" cy="142.268" r="3.50755" fill="white" stroke="#3A3A3C"/>
<circle cx="121.562" cy="157.63" r="3.50755" fill="white" stroke="#3A3A3C"/>
<circle cx="121.562" cy="172.992" r="3.50755" fill="white" stroke="#3A3A3C"/>
<circle cx="134.921" cy="4.00755" r="3.50755" fill="white" stroke="#3A3A3C"/>
<circle cx="134.921" cy="19.3699" r="3.50755" fill="white" stroke="#3A3A3C"/>
<circle cx="134.921" cy="34.732" r="3.50755" fill="white" stroke="#3A3A3C"/>
<circle cx="134.921" cy="50.0943" r="3.50755" fill="white" stroke="#3A3A3C"/>
<circle cx="134.921" cy="65.4566" r="3.50755" fill="white" stroke="#3A3A3C"/>
<circle cx="134.921" cy="80.8188" r="3.50755" fill="white" stroke="#3A3A3C"/>
<circle cx="134.921" cy="96.1811" r="3.50755" fill="white" stroke="#3A3A3C"/>
<circle cx="134.921" cy="111.543" r="3.50755" fill="white" stroke="#3A3A3C"/>
<circle cx="134.921" cy="126.906" r="3.50755" fill="white" stroke="#3A3A3C"/>
<circle cx="134.921" cy="142.268" r="3.50755" fill="white" stroke="#3A3A3C"/>
<circle cx="134.921" cy="157.63" r="3.50755" fill="white" stroke="#3A3A3C"/>
<circle cx="134.921" cy="172.992" r="3.50755" fill="white" stroke="#3A3A3C"/>
<circle cx="148.279" cy="4.00755" r="3.50755" fill="white" stroke="#3A3A3C"/>
<circle cx="148.279" cy="19.3699" r="3.50755" fill="white" stroke="#3A3A3C"/>
<circle cx="148.279" cy="34.732" r="3.50755" fill="white" stroke="#3A3A3C"/>
<circle cx="148.279" cy="50.0943" r="3.50755" fill="white" stroke="#3A3A3C"/>
<circle cx="148.279" cy="65.4566" r="3.50755" fill="white" stroke="#3A3A3C"/>
<circle cx="148.279" cy="80.8188" r="3.50755" fill="white" stroke="#3A3A3C"/>
<circle cx="148.279" cy="96.1811" r="3.50755" fill="white" stroke="#3A3A3C"/>
<circle cx="148.279" cy="111.543" r="3.50755" fill="white" stroke="#3A3A3C"/>
<circle cx="148.279" cy="126.906" r="3.50755" fill="white" stroke="#3A3A3C"/>
<circle cx="148.279" cy="142.268" r="3.50755" fill="white" stroke="#3A3A3C"/>
<circle cx="148.279" cy="157.63" r="3.50755" fill="white" stroke="#3A3A3C"/>
<circle cx="148.279" cy="172.992" r="3.50755" fill="white" stroke="#3A3A3C"/>
<circle cx="161.638" cy="4.00755" r="3.50755" fill="white" stroke="#3A3A3C"/>
<circle cx="161.638" cy="19.3699" r="3.50755" fill="white" stroke="#3A3A3C"/>
<circle cx="161.638" cy="34.732" r="3.50755" fill="white" stroke="#3A3A3C"/>
<circle cx="161.638" cy="50.0943" r="3.50755" fill="white" stroke="#3A3A3C"/>
<circle cx="161.638" cy="65.4566" r="3.50755" fill="white" stroke="#3A3A3C"/>
<circle cx="161.638" cy="80.8188" r="3.50755" fill="white" stroke="#3A3A3C"/>
<circle cx="161.638" cy="96.1811" r="3.50755" fill="white" stroke="#3A3A3C"/>
<circle cx="161.638" cy="111.543" r="3.50755" fill="white" stroke="#3A3A3C"/>
<circle cx="161.638" cy="126.906" r="3.50755" fill="white" stroke="#3A3A3C"/>
<circle cx="161.638" cy="142.268" r="3.50755" fill="white" stroke="#3A3A3C"/>
<circle cx="161.638" cy="157.63" r="3.50755" fill="white" stroke="#3A3A3C"/>
<circle cx="161.638" cy="172.992" r="3.50755" fill="white" stroke="#3A3A3C"/>
<circle cx="174.996" cy="4.00755" r="3.50755" fill="white" stroke="#3A3A3C"/>
<circle cx="174.996" cy="19.3699" r="3.50755" fill="white" stroke="#3A3A3C"/>
<circle cx="174.996" cy="34.732" r="3.50755" fill="white" stroke="#3A3A3C"/>
<circle cx="174.996" cy="50.0943" r="3.50755" fill="white" stroke="#3A3A3C"/>
<circle cx="174.996" cy="65.4566" r="3.50755" fill="white" stroke="#3A3A3C"/>
<circle cx="174.996" cy="80.8188" r="3.50755" fill="white" stroke="#3A3A3C"/>
<circle cx="174.996" cy="96.1811" r="3.50755" fill="white" stroke="#3A3A3C"/>
<circle cx="174.996" cy="111.543" r="3.50755" fill="white" stroke="#3A3A3C"/>
<circle cx="174.996" cy="126.906" r="3.50755" fill="white" stroke="#3A3A3C"/>
<circle cx="174.996" cy="142.268" r="3.50755" fill="white" stroke="#3A3A3C"/>
<circle cx="174.996" cy="157.63" r="3.50755" fill="white" stroke="#3A3A3C"/>
<circle cx="174.996" cy="172.992" r="3.50755" fill="white" stroke="#3A3A3C"/>
<circle cx="188.355" cy="4.00755" r="3.50755" fill="white" stroke="#3A3A3C"/>
<circle cx="188.355" cy="19.3699" r="3.50755" fill="white" stroke="#3A3A3C"/>
<circle cx="188.355" cy="34.732" r="3.50755" fill="white" stroke="#3A3A3C"/>
<circle cx="188.355" cy="50.0943" r="3.50755" fill="white" stroke="#3A3A3C"/>
<circle cx="188.355" cy="65.4566" r="3.50755" fill="white" stroke="#3A3A3C"/>
<circle cx="188.355" cy="80.8188" r="3.50755" fill="white" stroke="#3A3A3C"/>
<circle cx="188.355" cy="96.1811" r="3.50755" fill="white" stroke="#3A3A3C"/>
<circle cx="188.355" cy="111.543" r="3.50755" fill="white" stroke="#3A3A3C"/>
<circle cx="188.355" cy="126.906" r="3.50755" fill="white" stroke="#3A3A3C"/>
<circle cx="188.355" cy="142.268" r="3.50755" fill="white" stroke="#3A3A3C"/>
<circle cx="188.355" cy="157.63" r="3.50755" fill="white" stroke="#3A3A3C"/>
<circle cx="188.355" cy="172.992" r="3.50755" fill="white" stroke="#3A3A3C"/>
<circle cx="201.713" cy="4.00755" r="3.50755" fill="white" stroke="#3A3A3C"/>
<circle cx="201.713" cy="19.3699" r="3.50755" fill="white" stroke="#3A3A3C"/>
<circle cx="201.713" cy="34.732" r="3.50755" fill="white" stroke="#3A3A3C"/>
<circle cx="201.713" cy="50.0943" r="3.50755" fill="white" stroke="#3A3A3C"/>
<circle cx="201.713" cy="65.4566" r="3.50755" fill="white" stroke="#3A3A3C"/>
<circle cx="201.713" cy="80.8188" r="3.50755" fill="white" stroke="#3A3A3C"/>
<circle cx="201.713" cy="96.1811" r="3.50755" fill="white" stroke="#3A3A3C"/>
<circle cx="201.713" cy="111.543" r="3.50755" fill="white" stroke="#3A3A3C"/>
<circle cx="201.713" cy="126.906" r="3.50755" fill="white" stroke="#3A3A3C"/>
<circle cx="201.713" cy="142.268" r="3.50755" fill="white" stroke="#3A3A3C"/>
<circle cx="201.713" cy="157.63" r="3.50755" fill="white" stroke="#3A3A3C"/>
<circle cx="201.713" cy="172.992" r="3.50755" fill="white" stroke="#3A3A3C"/>
</svg>
