<svg width="118" height="110" viewBox="0 0 118 110" fill="none" xmlns="http://www.w3.org/2000/svg">
<path d="M102.5 55C102.5 64.7959 97.1606 73.8636 88.1323 80.5703C79.1041 87.277 66.5144 91.5 52.5 91.5C38.4856 91.5 25.8959 87.277 16.8677 80.5703C7.8394 73.8636 2.5 64.7959 2.5 55C2.5 45.2041 7.8394 36.1364 16.8677 29.4297C25.8959 22.723 38.4856 18.5 52.5 18.5C66.5144 18.5 79.1041 22.723 88.1323 29.4297C97.1606 36.1364 102.5 45.2041 102.5 55Z" stroke="#3A3A3C" stroke-width="5"/>
<path d="M115.5 39.0462C115.5 41.3537 114.782 44.9736 113.376 49.5453C111.989 54.0566 109.995 59.2999 107.587 64.7738C102.761 75.7412 96.351 87.4569 90.0005 95.9176C86.8139 100.163 83.7399 103.457 80.9877 105.448C78.1558 107.497 76.2493 107.769 75.0201 107.297C73.7319 106.803 72.0068 105.061 70.6421 100.179C69.3095 95.4105 68.5 88.2545 68.5 78.0924C68.5 57.4947 65.2719 45.3551 59.7917 38.8112C54.0291 31.9302 46.3233 31.7689 39.4045 33.4657C35.9537 34.3119 32.5539 35.6459 29.4801 36.9447C28.5447 37.3399 27.6504 37.7267 26.7939 38.0972C24.7594 38.9772 22.9381 39.7651 21.2857 40.3539C20.1327 40.7649 19.1774 41.0347 18.4019 41.1594C17.6066 41.2873 17.1863 41.231 17.0023 41.1716C16.9161 41.1438 16.8787 41.1312 16.8016 40.9831C16.6778 40.7451 16.5 40.1827 16.5 39.0462C16.5 29.2259 21.7951 20.1458 30.7316 13.4355C39.6689 6.72459 52.1299 2.5 66 2.5C79.8701 2.5 92.3311 6.72459 101.268 13.4355C110.205 20.1458 115.5 29.2259 115.5 39.0462Z" stroke="#73CB43" stroke-width="5"/>
</svg>
