<svg width="365" height="332" viewBox="0 0 365 332" fill="none" xmlns="http://www.w3.org/2000/svg">
<path d="M274.248 189.056C291.516 230.757 221.977 254.928 180.071 272.281C138.165 289.633 99.7819 354.378 82.5141 312.678C65.2463 270.977 75.6326 138.622 117.539 121.269C159.445 103.916 256.98 147.356 274.248 189.056Z" fill="#74C042" fill-opacity="0.23"/>
<g filter="url(#filter0_i_17_25)">
<path d="M318.932 114.024C323.003 123.855 321.959 132.54 317.501 140.431C312.984 148.428 304.906 155.689 294.784 162.329C277.651 173.568 255.264 182.659 236.013 190.477C232.5 191.903 229.091 193.288 225.838 194.635C215.088 199.086 204.651 206.535 194.854 214.422C190.427 217.986 186.102 221.664 181.927 225.214C181.475 225.598 181.025 225.981 180.577 226.362C175.976 230.272 171.568 233.991 167.361 237.244C163.151 240.501 159.194 243.25 155.504 245.238C151.802 247.232 148.485 248.395 145.539 248.606C142.658 248.811 140.078 248.114 137.712 246.256C135.294 244.356 132.977 241.146 130.894 236.115C126.712 226.015 124.135 210.202 123.339 191.734C122.545 173.316 123.527 152.442 126.349 132.323C129.172 112.191 133.826 92.9028 140.331 77.6186C146.876 62.2407 155.113 51.3452 164.836 47.319C174.832 43.1795 188.369 42.5968 203.512 44.8562C218.613 47.1093 235.102 52.1571 250.863 59.0522C266.623 65.947 281.59 74.6606 293.662 84.2032C305.767 93.7722 314.802 104.05 318.932 114.024Z" stroke="#6B7070" stroke-width="4"/>
</g>
<defs>
<filter id="filter0_i_17_25" x="121.073" y="41.5509" width="202.408" height="213.089" filterUnits="userSpaceOnUse" color-interpolation-filters="sRGB">
<feFlood flood-opacity="0" result="BackgroundImageFix"/>
<feBlend mode="normal" in="SourceGraphic" in2="BackgroundImageFix" result="shape"/>
<feColorMatrix in="SourceAlpha" type="matrix" values="0 0 0 0 0 0 0 0 0 0 0 0 0 0 0 0 0 0 127 0" result="hardAlpha"/>
<feOffset dy="4"/>
<feGaussianBlur stdDeviation="2"/>
<feComposite in2="hardAlpha" operator="arithmetic" k2="-1" k3="1"/>
<feColorMatrix type="matrix" values="0 0 0 0 0 0 0 0 0 0 0 0 0 0 0 0 0 0 0.25 0"/>
<feBlend mode="normal" in2="shape" result="effect1_innerShadow_17_25"/>
</filter>
</defs>
</svg>
