<svg width="233" height="264" viewBox="0 0 233 264" fill="none" xmlns="http://www.w3.org/2000/svg">
<path d="M6.54494 0L12.213 15.7079H0.876856L6.54494 0Z" fill="#8C8C8D"/>
<path d="M6.54494 19.6348L12.213 35.3427H0.876856L6.54494 19.6348Z" fill="#8C8C8D"/>
<path d="M6.54494 43.1966L12.213 58.9045H0.876856L6.54494 43.1966Z" fill="#8C8C8D"/>
<path d="M6.54494 68.0674L12.213 83.7753H0.876856L6.54494 68.0674Z" fill="#8C8C8D"/>
<path d="M6.54494 92.9382L12.213 108.646H0.876856L6.54494 92.9382Z" fill="#8C8C8D"/>
<path d="M6.54494 117.809L12.213 133.517H0.876856L6.54494 117.809Z" fill="#8C8C8D"/>
<path d="M6.54494 142.68L12.213 158.388H0.876856L6.54494 142.68Z" fill="#8C8C8D"/>
<path d="M6.54494 167.551L12.213 183.258H0.876856L6.54494 167.551Z" fill="#8C8C8D"/>
<path d="M6.54494 192.421L12.213 208.129H0.876856L6.54494 192.421Z" fill="#8C8C8D"/>
<path d="M6.54494 217.292L12.213 233H0.876856L6.54494 217.292Z" fill="#8C8C8D"/>
<path d="M6.54494 242.163L12.213 257.871H0.876856L6.54494 242.163Z" fill="#8C8C8D"/>
<path d="M53.6685 0L59.3366 15.7079H48.0005L53.6685 0Z" fill="#8C8C8D"/>
<path d="M53.6685 19.6348L59.3366 35.3427H48.0005L53.6685 19.6348Z" fill="#8C8C8D"/>
<path d="M53.6685 43.1966L59.3366 58.9045H48.0005L53.6685 43.1966Z" fill="#8C8C8D"/>
<path d="M53.6685 68.0674L59.3366 83.7753H48.0005L53.6685 68.0674Z" fill="#8C8C8D"/>
<path d="M53.6685 92.9382L59.3366 108.646H48.0005L53.6685 92.9382Z" fill="#8C8C8D"/>
<path d="M53.6685 117.809L59.3366 133.517H48.0005L53.6685 117.809Z" fill="#8C8C8D"/>
<path d="M53.6685 142.68L59.3366 158.388H48.0005L53.6685 142.68Z" fill="#8C8C8D"/>
<path d="M53.6685 167.551L59.3366 183.258H48.0005L53.6685 167.551Z" fill="#8C8C8D"/>
<path d="M53.6685 192.421L59.3366 208.129H48.0005L53.6685 192.421Z" fill="#8C8C8D"/>
<path d="M53.6685 217.292L59.3366 233H48.0005L53.6685 217.292Z" fill="#8C8C8D"/>
<path d="M53.6685 242.163L59.3366 257.871H48.0005L53.6685 242.163Z" fill="#8C8C8D"/>
<path d="M100.792 0L106.46 15.7079H95.124L100.792 0Z" fill="#8C8C8D"/>
<path d="M100.792 19.6348L106.46 35.3427H95.124L100.792 19.6348Z" fill="#8C8C8D"/>
<path d="M100.792 43.1966L106.46 58.9045H95.124L100.792 43.1966Z" fill="#8C8C8D"/>
<path d="M100.792 68.0674L106.46 83.7753H95.124L100.792 68.0674Z" fill="#8C8C8D"/>
<path d="M100.792 92.9382L106.46 108.646H95.124L100.792 92.9382Z" fill="#8C8C8D"/>
<path d="M100.792 117.809L106.46 133.517H95.124L100.792 117.809Z" fill="#8C8C8D"/>
<path d="M100.792 142.68L106.46 158.388H95.124L100.792 142.68Z" fill="#8C8C8D"/>
<path d="M100.792 167.551L106.46 183.258H95.124L100.792 167.551Z" fill="#8C8C8D"/>
<path d="M100.792 192.421L106.46 208.129H95.124L100.792 192.421Z" fill="#8C8C8D"/>
<path d="M100.792 217.292L106.46 233H95.124L100.792 217.292Z" fill="#8C8C8D"/>
<path d="M100.792 242.163L106.46 257.871H95.124L100.792 242.163Z" fill="#8C8C8D"/>
<path d="M147.916 0L153.584 15.7079H142.248L147.916 0Z" fill="#8C8C8D"/>
<path d="M147.916 19.6348L153.584 35.3427H142.248L147.916 19.6348Z" fill="#8C8C8D"/>
<path d="M147.916 43.1966L153.584 58.9045H142.248L147.916 43.1966Z" fill="#8C8C8D"/>
<path d="M147.916 68.0674L153.584 83.7753H142.248L147.916 68.0674Z" fill="#8C8C8D"/>
<path d="M147.916 92.9382L153.584 108.646H142.248L147.916 92.9382Z" fill="#8C8C8D"/>
<path d="M147.916 117.809L153.584 133.517H142.248L147.916 117.809Z" fill="#8C8C8D"/>
<path d="M147.916 142.68L153.584 158.388H142.248L147.916 142.68Z" fill="#8C8C8D"/>
<path d="M147.916 167.551L153.584 183.258H142.248L147.916 167.551Z" fill="#8C8C8D"/>
<path d="M147.916 192.421L153.584 208.129H142.248L147.916 192.421Z" fill="#8C8C8D"/>
<path d="M147.916 217.292L153.584 233H142.248L147.916 217.292Z" fill="#8C8C8D"/>
<path d="M147.916 242.163L153.584 257.871H142.248L147.916 242.163Z" fill="#8C8C8D"/>
<path d="M195.039 0L200.707 15.7079H189.371L195.039 0Z" fill="#8C8C8D"/>
<path d="M195.039 19.6348L200.707 35.3427H189.371L195.039 19.6348Z" fill="#8C8C8D"/>
<path d="M195.039 43.1966L200.707 58.9045H189.371L195.039 43.1966Z" fill="#8C8C8D"/>
<path d="M195.039 68.0674L200.707 83.7753H189.371L195.039 68.0674Z" fill="#8C8C8D"/>
<path d="M195.039 92.9382L200.707 108.646H189.371L195.039 92.9382Z" fill="#8C8C8D"/>
<path d="M195.039 117.809L200.707 133.517H189.371L195.039 117.809Z" fill="#8C8C8D"/>
<path d="M195.039 142.68L200.707 158.388H189.371L195.039 142.68Z" fill="#8C8C8D"/>
<path d="M195.039 167.551L200.707 183.258H189.371L195.039 167.551Z" fill="#8C8C8D"/>
<path d="M195.039 192.421L200.707 208.129H189.371L195.039 192.421Z" fill="#8C8C8D"/>
<path d="M195.039 217.292L200.707 233H189.371L195.039 217.292Z" fill="#8C8C8D"/>
<path d="M195.039 242.163L200.707 257.871H189.371L195.039 242.163Z" fill="#8C8C8D"/>
<path d="M22.2528 0L27.9209 15.7079H16.5847L22.2528 0Z" fill="#8C8C8D"/>
<path d="M22.2528 19.6348L27.9209 35.3427H16.5847L22.2528 19.6348Z" fill="#8C8C8D"/>
<path d="M22.2528 43.1966L27.9209 58.9045H16.5847L22.2528 43.1966Z" fill="#8C8C8D"/>
<path d="M22.2528 68.0674L27.9209 83.7753H16.5847L22.2528 68.0674Z" fill="#8C8C8D"/>
<path d="M22.2528 92.9382L27.9209 108.646H16.5847L22.2528 92.9382Z" fill="#8C8C8D"/>
<path d="M22.2528 117.809L27.9209 133.517H16.5847L22.2528 117.809Z" fill="#8C8C8D"/>
<path d="M22.2528 142.68L27.9209 158.388H16.5847L22.2528 142.68Z" fill="#8C8C8D"/>
<path d="M22.2528 167.551L27.9209 183.258H16.5847L22.2528 167.551Z" fill="#8C8C8D"/>
<path d="M22.2528 192.421L27.9209 208.129H16.5847L22.2528 192.421Z" fill="#8C8C8D"/>
<path d="M22.2528 217.292L27.9209 233H16.5847L22.2528 217.292Z" fill="#8C8C8D"/>
<path d="M22.2528 242.163L27.9209 257.871H16.5847L22.2528 242.163Z" fill="#8C8C8D"/>
<path d="M69.3764 0L75.0445 15.7079H63.7083L69.3764 0Z" fill="#8C8C8D"/>
<path d="M69.3764 19.6348L75.0445 35.3427H63.7083L69.3764 19.6348Z" fill="#8C8C8D"/>
<path d="M69.3764 43.1966L75.0445 58.9045H63.7083L69.3764 43.1966Z" fill="#8C8C8D"/>
<path d="M69.3764 68.0674L75.0445 83.7753H63.7083L69.3764 68.0674Z" fill="#8C8C8D"/>
<path d="M69.3764 92.9382L75.0445 108.646H63.7083L69.3764 92.9382Z" fill="#8C8C8D"/>
<path d="M69.3764 117.809L75.0445 133.517H63.7083L69.3764 117.809Z" fill="#8C8C8D"/>
<path d="M69.3764 142.68L75.0445 158.388H63.7083L69.3764 142.68Z" fill="#8C8C8D"/>
<path d="M69.3764 167.551L75.0445 183.258H63.7083L69.3764 167.551Z" fill="#8C8C8D"/>
<path d="M69.3764 192.421L75.0445 208.129H63.7083L69.3764 192.421Z" fill="#8C8C8D"/>
<path d="M69.3764 217.292L75.0445 233H63.7083L69.3764 217.292Z" fill="#8C8C8D"/>
<path d="M69.3764 242.163L75.0445 257.871H63.7083L69.3764 242.163Z" fill="#8C8C8D"/>
<path d="M116.5 0L122.168 15.7079H110.832L116.5 0Z" fill="#8C8C8D"/>
<path d="M116.5 19.6348L122.168 35.3427H110.832L116.5 19.6348Z" fill="#8C8C8D"/>
<path d="M116.5 43.1966L122.168 58.9045H110.832L116.5 43.1966Z" fill="#8C8C8D"/>
<path d="M116.5 68.0674L122.168 83.7753H110.832L116.5 68.0674Z" fill="#8C8C8D"/>
<path d="M116.5 92.9382L122.168 108.646H110.832L116.5 92.9382Z" fill="#8C8C8D"/>
<path d="M116.5 117.809L122.168 133.517H110.832L116.5 117.809Z" fill="#8C8C8D"/>
<path d="M116.5 142.68L122.168 158.388H110.832L116.5 142.68Z" fill="#8C8C8D"/>
<path d="M116.5 167.551L122.168 183.258H110.832L116.5 167.551Z" fill="#8C8C8D"/>
<path d="M116.5 192.421L122.168 208.129H110.832L116.5 192.421Z" fill="#8C8C8D"/>
<path d="M116.5 217.292L122.168 233H110.832L116.5 217.292Z" fill="#8C8C8D"/>
<path d="M116.5 242.163L122.168 257.871H110.832L116.5 242.163Z" fill="#8C8C8D"/>
<path d="M163.624 0L169.292 15.7079H157.956L163.624 0Z" fill="#8C8C8D"/>
<path d="M163.624 19.6348L169.292 35.3427H157.956L163.624 19.6348Z" fill="#8C8C8D"/>
<path d="M163.624 43.1966L169.292 58.9045H157.956L163.624 43.1966Z" fill="#8C8C8D"/>
<path d="M163.624 68.0674L169.292 83.7753H157.956L163.624 68.0674Z" fill="#8C8C8D"/>
<path d="M163.624 92.9382L169.292 108.646H157.956L163.624 92.9382Z" fill="#8C8C8D"/>
<path d="M163.624 117.809L169.292 133.517H157.956L163.624 117.809Z" fill="#8C8C8D"/>
<path d="M163.624 142.68L169.292 158.388H157.956L163.624 142.68Z" fill="#8C8C8D"/>
<path d="M163.624 167.551L169.292 183.258H157.956L163.624 167.551Z" fill="#8C8C8D"/>
<path d="M163.624 192.421L169.292 208.129H157.956L163.624 192.421Z" fill="#8C8C8D"/>
<path d="M163.624 217.292L169.292 233H157.956L163.624 217.292Z" fill="#8C8C8D"/>
<path d="M163.624 242.163L169.292 257.871H157.956L163.624 242.163Z" fill="#8C8C8D"/>
<path d="M210.747 0L216.415 15.7079H205.079L210.747 0Z" fill="#8C8C8D"/>
<path d="M210.747 19.6348L216.415 35.3427H205.079L210.747 19.6348Z" fill="#8C8C8D"/>
<path d="M210.747 43.1966L216.415 58.9045H205.079L210.747 43.1966Z" fill="#8C8C8D"/>
<path d="M210.747 68.0674L216.415 83.7753H205.079L210.747 68.0674Z" fill="#8C8C8D"/>
<path d="M210.747 92.9382L216.415 108.646H205.079L210.747 92.9382Z" fill="#8C8C8D"/>
<path d="M210.747 117.809L216.415 133.517H205.079L210.747 117.809Z" fill="#8C8C8D"/>
<path d="M210.747 142.68L216.415 158.388H205.079L210.747 142.68Z" fill="#8C8C8D"/>
<path d="M210.747 167.551L216.415 183.258H205.079L210.747 167.551Z" fill="#8C8C8D"/>
<path d="M210.747 192.421L216.415 208.129H205.079L210.747 192.421Z" fill="#8C8C8D"/>
<path d="M210.747 217.292L216.415 233H205.079L210.747 217.292Z" fill="#8C8C8D"/>
<path d="M210.747 242.163L216.415 257.871H205.079L210.747 242.163Z" fill="#8C8C8D"/>
<path d="M37.9607 0L43.6288 15.7079H32.2926L37.9607 0Z" fill="#8C8C8D"/>
<path d="M37.9607 19.6348L43.6288 35.3427H32.2926L37.9607 19.6348Z" fill="#8C8C8D"/>
<path d="M37.9607 43.1966L43.6288 58.9045H32.2926L37.9607 43.1966Z" fill="#8C8C8D"/>
<path d="M37.9607 68.0674L43.6288 83.7753H32.2926L37.9607 68.0674Z" fill="#8C8C8D"/>
<path d="M37.9607 92.9382L43.6288 108.646H32.2926L37.9607 92.9382Z" fill="#8C8C8D"/>
<path d="M37.9607 117.809L43.6288 133.517H32.2926L37.9607 117.809Z" fill="#8C8C8D"/>
<path d="M37.9607 142.68L43.6288 158.388H32.2926L37.9607 142.68Z" fill="#8C8C8D"/>
<path d="M37.9607 167.551L43.6288 183.258H32.2926L37.9607 167.551Z" fill="#8C8C8D"/>
<path d="M37.9607 192.421L43.6288 208.129H32.2926L37.9607 192.421Z" fill="#8C8C8D"/>
<path d="M37.9607 217.292L43.6288 233H32.2926L37.9607 217.292Z" fill="#8C8C8D"/>
<path d="M37.9607 242.163L43.6288 257.871H32.2926L37.9607 242.163Z" fill="#8C8C8D"/>
<path d="M85.0843 0L90.7523 15.7079H79.4162L85.0843 0Z" fill="#8C8C8D"/>
<path d="M85.0843 19.6348L90.7523 35.3427H79.4162L85.0843 19.6348Z" fill="#8C8C8D"/>
<path d="M85.0843 43.1966L90.7523 58.9045H79.4162L85.0843 43.1966Z" fill="#8C8C8D"/>
<path d="M85.0843 68.0674L90.7523 83.7753H79.4162L85.0843 68.0674Z" fill="#8C8C8D"/>
<path d="M85.0843 92.9382L90.7523 108.646H79.4162L85.0843 92.9382Z" fill="#8C8C8D"/>
<path d="M85.0843 117.809L90.7523 133.517H79.4162L85.0843 117.809Z" fill="#8C8C8D"/>
<path d="M85.0843 142.68L90.7523 158.388H79.4162L85.0843 142.68Z" fill="#8C8C8D"/>
<path d="M85.0843 167.551L90.7523 183.258H79.4162L85.0843 167.551Z" fill="#8C8C8D"/>
<path d="M85.0843 192.421L90.7523 208.129H79.4162L85.0843 192.421Z" fill="#8C8C8D"/>
<path d="M85.0843 217.292L90.7523 233H79.4162L85.0843 217.292Z" fill="#8C8C8D"/>
<path d="M85.0843 242.163L90.7523 257.871H79.4162L85.0843 242.163Z" fill="#8C8C8D"/>
<path d="M132.208 0L137.876 15.7079H126.54L132.208 0Z" fill="#8C8C8D"/>
<path d="M132.208 19.6348L137.876 35.3427H126.54L132.208 19.6348Z" fill="#8C8C8D"/>
<path d="M132.208 43.1966L137.876 58.9045H126.54L132.208 43.1966Z" fill="#8C8C8D"/>
<path d="M132.208 68.0674L137.876 83.7753H126.54L132.208 68.0674Z" fill="#8C8C8D"/>
<path d="M132.208 92.9382L137.876 108.646H126.54L132.208 92.9382Z" fill="#8C8C8D"/>
<path d="M132.208 117.809L137.876 133.517H126.54L132.208 117.809Z" fill="#8C8C8D"/>
<path d="M132.208 142.68L137.876 158.388H126.54L132.208 142.68Z" fill="#8C8C8D"/>
<path d="M132.208 167.551L137.876 183.258H126.54L132.208 167.551Z" fill="#8C8C8D"/>
<path d="M132.208 192.421L137.876 208.129H126.54L132.208 192.421Z" fill="#8C8C8D"/>
<path d="M132.208 217.292L137.876 233H126.54L132.208 217.292Z" fill="#8C8C8D"/>
<path d="M132.208 242.163L137.876 257.871H126.54L132.208 242.163Z" fill="#8C8C8D"/>
<path d="M179.331 0L185 15.7079H173.663L179.331 0Z" fill="#8C8C8D"/>
<path d="M179.331 19.6348L185 35.3427H173.663L179.331 19.6348Z" fill="#8C8C8D"/>
<path d="M179.331 43.1966L185 58.9045H173.663L179.331 43.1966Z" fill="#8C8C8D"/>
<path d="M179.331 68.0674L185 83.7753H173.663L179.331 68.0674Z" fill="#8C8C8D"/>
<path d="M179.331 92.9382L185 108.646H173.663L179.331 92.9382Z" fill="#8C8C8D"/>
<path d="M179.331 117.809L185 133.517H173.663L179.331 117.809Z" fill="#8C8C8D"/>
<path d="M179.331 142.68L185 158.388H173.663L179.331 142.68Z" fill="#8C8C8D"/>
<path d="M179.331 167.551L185 183.258H173.663L179.331 167.551Z" fill="#8C8C8D"/>
<path d="M179.331 192.421L185 208.129H173.663L179.331 192.421Z" fill="#8C8C8D"/>
<path d="M179.331 217.292L185 233H173.663L179.331 217.292Z" fill="#8C8C8D"/>
<path d="M179.331 242.163L185 257.871H173.663L179.331 242.163Z" fill="#8C8C8D"/>
<path d="M226.455 0L232.123 15.7079H220.787L226.455 0Z" fill="#8C8C8D"/>
<path d="M226.455 19.6348L232.123 35.3427H220.787L226.455 19.6348Z" fill="#8C8C8D"/>
<path d="M226.455 43.1966L232.123 58.9045H220.787L226.455 43.1966Z" fill="#8C8C8D"/>
<path d="M226.455 68.0674L232.123 83.7753H220.787L226.455 68.0674Z" fill="#8C8C8D"/>
<path d="M226.455 92.9382L232.123 108.646H220.787L226.455 92.9382Z" fill="#8C8C8D"/>
<path d="M226.455 117.809L232.123 133.517H220.787L226.455 117.809Z" fill="#8C8C8D"/>
<path d="M226.455 142.68L232.123 158.388H220.787L226.455 142.68Z" fill="#8C8C8D"/>
<path d="M226.455 167.551L232.123 183.258H220.787L226.455 167.551Z" fill="#8C8C8D"/>
<path d="M226.455 192.421L232.123 208.129H220.787L226.455 192.421Z" fill="#8C8C8D"/>
<path d="M226.455 217.292L232.123 233H220.787L226.455 217.292Z" fill="#8C8C8D"/>
<path d="M226.455 242.163L232.123 257.871H220.787L226.455 242.163Z" fill="#8C8C8D"/>
</svg>
